<mxfile host="Electron" modified="2025-10-19T00:00:00.000Z" agent="Mozilla/5.0 (Windows NT 10.0; Win64; x64) AppleWebKit/537.36" etag="abc133" version="24.7.5" type="device">
  <diagram name="모니터링 시스템 API" id="monitoring-diagram">
    <mxGraphModel dx="1422" dy="794" grid="1" gridSize="10" guides="1" tooltips="1" connect="1" arrows="1" fold="1" page="1" pageScale="1" pageWidth="1169" pageHeight="827" math="0" shadow="0">
      <root>
        <mxCell id="0"/>
        <mxCell id="1" parent="0"/>
        <mxCell id="title" value="📊 모니터링 시스템 API&#xa;(시스템 상태 및 로그 관리)" style="text;html=1;strokeColor=none;fillColor=none;align=center;verticalAlign=middle;whiteSpace=wrap;rounded=0;fontSize=24;fontStyle=1" parent="1" vertex="1">
          <mxGeometry x="350" y="20" width="400" height="60" as="geometry"/>
        </mxCell>
        <mxCell id="system-health" value="GET /api/monitoring/health&#xa;💚 시스템 헬스체크" style="rounded=1;whiteSpace=wrap;html=1;fillColor=#4CAF50;strokeColor=#2E7D32;fontColor=#FFFFFF;fontSize=12;fontStyle=1" parent="1" vertex="1">
          <mxGeometry x="200" y="120" width="180" height="80" as="geometry"/>
        </mxCell>
        <mxCell id="system-metrics" value="GET /api/monitoring/metrics&#xa;📈 시스템 메트릭" style="rounded=1;whiteSpace=wrap;html=1;fillColor=#2196F3;strokeColor=#0D47A1;fontColor=#FFFFFF;fontSize=12;fontStyle=1" parent="1" vertex="1">
          <mxGeometry x="420" y="120" width="180" height="80" as="geometry"/>
        </mxCell>
        <mxCell id="database-status" value="GET /api/monitoring/database/status&#xa;🗄️ 데이터베이스 상태" style="rounded=1;whiteSpace=wrap;html=1;fillColor=#FF9800;strokeColor=#E65100;fontColor=#FFFFFF;fontSize=12;fontStyle=1" parent="1" vertex="1">
          <mxGeometry x="640" y="120" width="180" height="80" as="geometry"/>
        </mxCell>
        <mxCell id="api-logs" value="POST /api/monitoring/logs&#xa;📝 API 로그 조회" style="rounded=1;whiteSpace=wrap;html=1;fillColor=#9C27B0;strokeColor=#4A148C;fontColor=#FFFFFF;fontSize=12;fontStyle=1" parent="1" vertex="1">
          <mxGeometry x="200" y="240" width="180" height="80" as="geometry"/>
        </mxCell>
        <mxCell id="error-logs" value="POST /api/monitoring/error-logs&#xa;🚨 에러 로그 조회" style="rounded=1;whiteSpace=wrap;html=1;fillColor=#FF5722;strokeColor=#BF360C;fontColor=#FFFFFF;fontSize=12;fontStyle=1" parent="1" vertex="1">
          <mxGeometry x="420" y="240" width="180" height="80" as="geometry"/>
        </mxCell>
        <mxCell id="performance-logs" value="POST /api/monitoring/performance&#xa;⚡ 성능 로그 조회" style="rounded=1;whiteSpace=wrap;html=1;fillColor=#795548;strokeColor=#3E2723;fontColor=#FFFFFF;fontSize=12;fontStyle=1" parent="1" vertex="1">
          <mxGeometry x="640" y="240" width="180" height="80" as="geometry"/>
        </mxCell>
        <mxCell id="user-activity" value="POST /api/monitoring/user-activity&#xa;👥 사용자 활동 로그" style="rounded=1;whiteSpace=wrap;html=1;fillColor=#607D8B;strokeColor=#263238;fontColor=#FFFFFF;fontSize=12;fontStyle=1" parent="1" vertex="1">
          <mxGeometry x="310" y="360" width="180" height="80" as="geometry"/>
        </mxCell>
        <mxCell id="health-indicators" value="❤️ 헬스 인디케이터&#xa;• DB 연결&#xa;• 메모리 사용량&#xa;• CPU 사용량&#xa;• 디스크 공간" style="text;html=1;strokeColor=#2196F3;fillColor=#E3F2FD;align=left;verticalAlign=top;whiteSpace=wrap;rounded=1;fontSize=12" parent="1" vertex="1">
          <mxGeometry x="100" y="120" width="150" height="120" as="geometry"/>
        </mxCell>
        <mxCell id="metrics-types" value="📊 메트릭 유형&#xa;• 요청 수&#xa;• 응답 시간&#xa;• 에러율&#xa;• 동시 사용자" style="text;html=1;strokeColor=#FF9800;fillColor=#FFF3E0;align=left;verticalAlign=top;whiteSpace=wrap;rounded=1;fontSize=12" parent="1" vertex="1">
          <mxGeometry x="850" y="120" width="150" height="120" as="geometry"/>
        </mxCell>
        <mxCell id="log-management" value="📋 로그 관리&#xa;• 로그 레벨&#xa;• 로그 로테이션&#xa;• 로그 보존 기간&#xa;• 실시간 모니터링" style="text;html=1;strokeColor=#4CAF50;fillColor=#E8F5E8;align=left;verticalAlign=top;whiteSpace=wrap;rounded=1;fontSize=12" parent="1" vertex="1">
          <mxGeometry x="850" y="260" width="150" height="120" as="geometry"/>
        </mxCell>
        <mxCell id="flow1" value="" style="endArrow=classic;html=1;rounded=0;exitX=0.5;exitY=1;entryX=0.5;entryY=0" parent="1" source="system-health" target="system-metrics" edge="1">
          <mxGeometry width="50" height="50" relative="1" as="geometry">
            <mxPoint x="-20" y="30" as="sourcePoint"/>
            <mxPoint x="30" y="-20" as="targetPoint"/>
          </mxGeometry>
        </mxCell>
        <mxCell id="flow2" value="" style="endArrow=classic;html=1;rounded=0;exitX=0.5;exitY=1;entryX=0.5;entryY=0" parent="1" source="system-metrics" target="database-status" edge="1">
          <mxGeometry width="50" height="50" relative="1" as="geometry">
            <mxPoint x="-20" y="30" as="sourcePoint"/>
            <mxPoint x="30" y="-20" as="targetPoint"/>
          </mxGeometry>
        </mxCell>
        <mxCell id="flow3" value="" style="endArrow=classic;html=1;rounded=0;exitX=0.5;exitY=1;entryX=0.5;entryY=0" parent="1" source="system-health" target="api-logs" edge="1">
          <mxGeometry width="50" height="50" relative="1" as="geometry">
            <mxPoint x="-20" y="30" as="sourcePoint"/>
            <mxPoint x="30" y="-20" as="targetPoint"/>
          </mxGeometry>
        </mxCell>
        <mxCell id="flow4" value="" style="endArrow=classic;html=1;rounded=0;exitX=0.5;exitY=1;entryX=0.5;entryY=0" parent="1" source="api-logs" target="error-logs" edge="1">
          <mxGeometry width="50" height="50" relative="1" as="geometry">
            <mxPoint x="-20" y="30" as="sourcePoint"/>
            <mxPoint x="30" y="-20" as="targetPoint"/>
          </mxGeometry>
        </mxCell>
        <mxCell id="flow5" value="" style="endArrow=classic;html=1;rounded=0;exitX=0.5;exitY=1;entryX=0.5;entryY=0" parent="1" source="error-logs" target="performance-logs" edge="1">
          <mxGeometry width="50" height="50" relative="1" as="geometry">
            <mxPoint x="-20" y="30" as="sourcePoint"/>
            <mxPoint x="30" y="-20" as="targetPoint"/>
          </mxGeometry>
        </mxCell>
        <mxCell id="flow6" value="" style="endArrow=classic;html=1;rounded=0;exitX=0.5;exitY=1;entryX=0.5;entryY=0" parent="1" source="performance-logs" target="user-activity" edge="1">
          <mxGeometry width="50" height="50" relative="1" as="geometry">
            <mxPoint x="-20" y="30" as="sourcePoint"/>
            <mxPoint x="30" y="-20" as="targetPoint"/>
          </mxCell>
        </mxCell>
        <mxCell id="legend" value="🎨 범례&#xa;🟢 GET - 헬스체크&#xa;🔵 GET - 메트릭&#xa;🟠 GET - DB상태&#xa;🟣 POST - API로그&#xa;🟡 POST - 에러로그&#xa;🟤 POST - 성능로그&#xa;🔵 POST - 사용자활동" style="text;html=1;strokeColor=none;fillColor=#F5F5F5;align=left;verticalAlign=top;whiteSpace=wrap;rounded=1;fontSize=10" parent="1" vertex="1">
          <mxGeometry x="100" y="480" width="200" height="140" as="geometry"/>
        </mxCell>
      </root>
    </mxGraphModel>
  </diagram>
</mxfile>